<?xml version="1.0" encoding="UTF-8"?>
<svg xmlns="http://www.w3.org/2000/svg" xmlns:xlink="http://www.w3.org/1999/xlink" width="48pt" height="48pt" viewBox="0 0 48 48" version="1.1">
<g id="surface1">
<path style=" stroke:none;fill-rule:nonzero;fill:#6E14EF;fill-opacity:1;" d="M 18.949219 3.15625 C 18.183594 3.15625 17.527344 3.707031 17.394531 4.464844 L 12.6875 24.84375 L 12.691406 24.84375 C 12.648438 24.980469 12.632813 25.121094 12.632813 25.261719 C 12.632813 26.132813 13.339844 26.84375 14.210938 26.84375 L 22.894531 26.84375 L 20.558594 42.316406 C 20.539063 42.421875 20.527344 42.527344 20.527344 42.632813 C 20.527344 43.5 21.234375 44.210938 22.105469 44.210938 C 22.691406 44.210938 23.226563 43.882813 23.5 43.371094 L 23.503906 43.371094 L 34.433594 23.035156 L 34.417969 23.011719 C 34.601563 22.746094 34.738281 22.449219 34.738281 22.105469 C 34.738281 21.234375 34.027344 20.527344 33.15625 20.527344 L 24.472656 20.527344 L 29.859375 5.382813 C 29.949219 5.179688 30 4.957031 30 4.738281 C 30 3.867188 29.289063 3.15625 28.421875 3.15625 Z "/>
</g>
</svg>
